<?xml version="1.0" encoding="UTF-8" standalone="no"?>
<!DOCTYPE svg PUBLIC "-//W3C//DTD SVG 1.1//EN"
 "http://www.w3.org/Graphics/SVG/1.1/DTD/svg11.dtd">
<!-- Generated by graphviz version 13.1.0 (20250701.0955)
 -->
<!-- Title: interface/driver_nrf905_interface.h Pages: 1 -->
<svg width="487pt" height="176pt"
 viewBox="0.00 0.00 487.00 176.00" xmlns="http://www.w3.org/2000/svg" xmlns:xlink="http://www.w3.org/1999/xlink">
<g id="graph0" class="graph" transform="scale(1 1) rotate(0) translate(4 172)">
<title>interface/driver_nrf905_interface.h</title>
<!-- Node1 -->
<g id="Node000001" class="node">
<title>Node1</title>
<g id="a_Node000001"><a xlink:title="driver nrf905 interface header file">
<polygon fill="#999999" stroke="#666666" points="302.38,-168 189.62,-168 189.62,-136 302.38,-136 302.38,-168"/>
<text xml:space="preserve" text-anchor="start" x="197.62" y="-154.5" font-family="Helvetica,sans-Serif" font-size="10.00">interface/driver_nrf905</text>
<text xml:space="preserve" text-anchor="middle" x="246" y="-142.5" font-family="Helvetica,sans-Serif" font-size="10.00">_interface.h</text>
</a>
</g>
</g>
<!-- Node2 -->
<g id="Node000002" class="node">
<title>Node2</title>
<g id="a_Node000002"><a xlink:href="driver__nrf905__basic_8h.html" target="_top" xlink:title="driver nrf905 basic header file">
<polygon fill="white" stroke="#666666" points="112,-100 0,-100 0,-68 112,-68 112,-100"/>
<text xml:space="preserve" text-anchor="start" x="8" y="-86.5" font-family="Helvetica,sans-Serif" font-size="10.00">example/driver_nrf905</text>
<text xml:space="preserve" text-anchor="middle" x="56" y="-74.5" font-family="Helvetica,sans-Serif" font-size="10.00">_basic.h</text>
</a>
</g>
</g>
<!-- Node1&#45;&gt;Node2 -->
<g id="edge1_Node000001_Node000002" class="edge">
<title>Node1&#45;&gt;Node2</title>
<g id="a_edge1_Node000001_Node000002"><a xlink:title=" ">
<path fill="none" stroke="#63b8ff" d="M190.78,-131.82C162.11,-121.86 127.55,-109.85 100.6,-100.49"/>
<polygon fill="#63b8ff" stroke="#63b8ff" points="189.43,-135.05 200.02,-135.03 191.73,-128.44 189.43,-135.05"/>
</a>
</g>
</g>
<!-- Node4 -->
<g id="Node000004" class="node">
<title>Node4</title>
<g id="a_Node000004"><a xlink:href="driver__nrf905__interface__template_8c.html" target="_top" xlink:title="driver nrf905 interface template source file">
<polygon fill="white" stroke="#666666" points="242.38,-100 129.62,-100 129.62,-68 242.38,-68 242.38,-100"/>
<text xml:space="preserve" text-anchor="start" x="137.62" y="-86.5" font-family="Helvetica,sans-Serif" font-size="10.00">interface/driver_nrf905</text>
<text xml:space="preserve" text-anchor="middle" x="186" y="-74.5" font-family="Helvetica,sans-Serif" font-size="10.00">_interface_template.c</text>
</a>
</g>
</g>
<!-- Node1&#45;&gt;Node4 -->
<g id="edge3_Node000001_Node000004" class="edge">
<title>Node1&#45;&gt;Node4</title>
<g id="a_edge3_Node000001_Node000004"><a xlink:title=" ">
<path fill="none" stroke="#63b8ff" d="M224.57,-127.43C216.34,-118.38 207.17,-108.29 199.84,-100.22"/>
<polygon fill="#63b8ff" stroke="#63b8ff" points="221.75,-129.53 231.07,-134.57 226.93,-124.82 221.75,-129.53"/>
</a>
</g>
</g>
<!-- Node5 -->
<g id="Node000005" class="node">
<title>Node5</title>
<g id="a_Node000005"><a xlink:href="driver__nrf905__register__test_8h.html" target="_top" xlink:title="driver nrf905 register test header file">
<polygon fill="white" stroke="#666666" points="351.88,-100 260.12,-100 260.12,-68 351.88,-68 351.88,-100"/>
<text xml:space="preserve" text-anchor="start" x="268.12" y="-86.5" font-family="Helvetica,sans-Serif" font-size="10.00">test/driver_nrf905</text>
<text xml:space="preserve" text-anchor="middle" x="306" y="-74.5" font-family="Helvetica,sans-Serif" font-size="10.00">_register_test.h</text>
</a>
</g>
</g>
<!-- Node1&#45;&gt;Node5 -->
<g id="edge4_Node000001_Node000005" class="edge">
<title>Node1&#45;&gt;Node5</title>
<g id="a_edge4_Node000001_Node000005"><a xlink:title=" ">
<path fill="none" stroke="#63b8ff" d="M267.43,-127.43C275.66,-118.38 284.83,-108.29 292.16,-100.22"/>
<polygon fill="#63b8ff" stroke="#63b8ff" points="265.07,-124.82 260.93,-134.57 270.25,-129.53 265.07,-124.82"/>
</a>
</g>
</g>
<!-- Node7 -->
<g id="Node000007" class="node">
<title>Node7</title>
<g id="a_Node000007"><a xlink:href="driver__nrf905__send__receive__test_8h.html" target="_top" xlink:title="driver nrf905 send receive test header file">
<polygon fill="white" stroke="#666666" points="478.5,-100 369.5,-100 369.5,-68 478.5,-68 478.5,-100"/>
<text xml:space="preserve" text-anchor="start" x="377.5" y="-86.5" font-family="Helvetica,sans-Serif" font-size="10.00">test/driver_nrf905</text>
<text xml:space="preserve" text-anchor="middle" x="424" y="-74.5" font-family="Helvetica,sans-Serif" font-size="10.00">_send_receive_test.h</text>
</a>
</g>
</g>
<!-- Node1&#45;&gt;Node7 -->
<g id="edge6_Node000001_Node000007" class="edge">
<title>Node1&#45;&gt;Node7</title>
<g id="a_edge6_Node000001_Node000007"><a xlink:title=" ">
<path fill="none" stroke="#63b8ff" d="M298.44,-131.56C325.16,-121.65 357.19,-109.77 382.22,-100.49"/>
<polygon fill="#63b8ff" stroke="#63b8ff" points="297.31,-128.24 289.15,-135 299.75,-134.8 297.31,-128.24"/>
</a>
</g>
</g>
<!-- Node3 -->
<g id="Node000003" class="node">
<title>Node3</title>
<g id="a_Node000003"><a xlink:href="driver__nrf905__basic_8c.html" target="_top" xlink:title="driver nrf905 basic source file">
<polygon fill="white" stroke="#666666" points="112,-32 0,-32 0,0 112,0 112,-32"/>
<text xml:space="preserve" text-anchor="start" x="8" y="-18.5" font-family="Helvetica,sans-Serif" font-size="10.00">example/driver_nrf905</text>
<text xml:space="preserve" text-anchor="middle" x="56" y="-6.5" font-family="Helvetica,sans-Serif" font-size="10.00">_basic.c</text>
</a>
</g>
</g>
<!-- Node2&#45;&gt;Node3 -->
<g id="edge2_Node000002_Node000003" class="edge">
<title>Node2&#45;&gt;Node3</title>
<g id="a_edge2_Node000002_Node000003"><a xlink:title=" ">
<path fill="none" stroke="#63b8ff" d="M56,-56.31C56,-48.12 56,-39.38 56,-32.22"/>
<polygon fill="#63b8ff" stroke="#63b8ff" points="52.5,-56.18 56,-66.18 59.5,-56.18 52.5,-56.18"/>
</a>
</g>
</g>
<!-- Node6 -->
<g id="Node000006" class="node">
<title>Node6</title>
<g id="a_Node000006"><a xlink:href="driver__nrf905__register__test_8c.html" target="_top" xlink:title="driver nrf905 register test source file">
<polygon fill="white" stroke="#666666" points="351.88,-32 260.12,-32 260.12,0 351.88,0 351.88,-32"/>
<text xml:space="preserve" text-anchor="start" x="268.12" y="-18.5" font-family="Helvetica,sans-Serif" font-size="10.00">test/driver_nrf905</text>
<text xml:space="preserve" text-anchor="middle" x="306" y="-6.5" font-family="Helvetica,sans-Serif" font-size="10.00">_register_test.c</text>
</a>
</g>
</g>
<!-- Node5&#45;&gt;Node6 -->
<g id="edge5_Node000005_Node000006" class="edge">
<title>Node5&#45;&gt;Node6</title>
<g id="a_edge5_Node000005_Node000006"><a xlink:title=" ">
<path fill="none" stroke="#63b8ff" d="M306,-56.31C306,-48.12 306,-39.38 306,-32.22"/>
<polygon fill="#63b8ff" stroke="#63b8ff" points="302.5,-56.18 306,-66.18 309.5,-56.18 302.5,-56.18"/>
</a>
</g>
</g>
<!-- Node8 -->
<g id="Node000008" class="node">
<title>Node8</title>
<g id="a_Node000008"><a xlink:href="driver__nrf905__send__receive__test_8c.html" target="_top" xlink:title="driver nrf905 send receive test source file">
<polygon fill="white" stroke="#666666" points="478.5,-32 369.5,-32 369.5,0 478.5,0 478.5,-32"/>
<text xml:space="preserve" text-anchor="start" x="377.5" y="-18.5" font-family="Helvetica,sans-Serif" font-size="10.00">test/driver_nrf905</text>
<text xml:space="preserve" text-anchor="middle" x="424" y="-6.5" font-family="Helvetica,sans-Serif" font-size="10.00">_send_receive_test.c</text>
</a>
</g>
</g>
<!-- Node7&#45;&gt;Node8 -->
<g id="edge7_Node000007_Node000008" class="edge">
<title>Node7&#45;&gt;Node8</title>
<g id="a_edge7_Node000007_Node000008"><a xlink:title=" ">
<path fill="none" stroke="#63b8ff" d="M424,-56.31C424,-48.12 424,-39.38 424,-32.22"/>
<polygon fill="#63b8ff" stroke="#63b8ff" points="420.5,-56.18 424,-66.18 427.5,-56.18 420.5,-56.18"/>
</a>
</g>
</g>
</g>
</svg>
