<?xml version="1.0" encoding="UTF-8" standalone="no"?>
<!DOCTYPE svg PUBLIC "-//W3C//DTD SVG 1.1//EN"
 "http://www.w3.org/Graphics/SVG/1.1/DTD/svg11.dtd">
<!-- Generated by graphviz version 13.1.0 (20250701.0955)
 -->
<!-- Title: nrf905_basic_send Pages: 1 -->
<svg width="257pt" height="66pt"
 viewBox="0.00 0.00 257.00 66.00" xmlns="http://www.w3.org/2000/svg" xmlns:xlink="http://www.w3.org/1999/xlink">
<g id="graph0" class="graph" transform="scale(1 1) rotate(0) translate(4 62)">
<title>nrf905_basic_send</title>
<!-- Node1 -->
<g id="Node000001" class="node">
<title>Node1</title>
<g id="a_Node000001"><a xlink:title="basic example send">
<polygon fill="#999999" stroke="#666666" points="97.75,-39 0,-39 0,-19 97.75,-19 97.75,-39"/>
<text xml:space="preserve" text-anchor="middle" x="48.88" y="-25.5" font-family="Helvetica,sans-Serif" font-size="10.00">nrf905_basic_send</text>
</a>
</g>
</g>
<!-- Node2 -->
<g id="Node000002" class="node">
<title>Node2</title>
<g id="a_Node000002"><a xlink:href="group__nrf905__basic__driver.html#ga7c6d8fcaa64cea2cd2ca8b11eda93ffe" target="_top" xlink:title="send data">
<polygon fill="white" stroke="#666666" points="225.88,-58 156.62,-58 156.62,-38 225.88,-38 225.88,-58"/>
<text xml:space="preserve" text-anchor="middle" x="191.25" y="-44.5" font-family="Helvetica,sans-Serif" font-size="10.00">nrf905_send</text>
</a>
</g>
</g>
<!-- Node1&#45;&gt;Node2 -->
<g id="edge1_Node000001_Node000002" class="edge">
<title>Node1&#45;&gt;Node2</title>
<g id="a_edge1_Node000001_Node000002"><a xlink:title=" ">
<path fill="none" stroke="#63b8ff" d="M98.18,-35.54C113.48,-37.61 130.31,-39.89 145.36,-41.92"/>
<polygon fill="#63b8ff" stroke="#63b8ff" points="144.58,-45.35 154.96,-43.22 145.52,-38.41 144.58,-45.35"/>
</a>
</g>
</g>
<!-- Node3 -->
<g id="Node000003" class="node">
<title>Node3</title>
<g id="a_Node000003"><a xlink:href="group__nrf905__basic__driver.html#ga937e0ee9cf0406d4a3a4bc03f63e70c8" target="_top" xlink:title="set the tx address">
<polygon fill="white" stroke="#666666" points="248.75,-20 133.75,-20 133.75,0 248.75,0 248.75,-20"/>
<text xml:space="preserve" text-anchor="middle" x="191.25" y="-6.5" font-family="Helvetica,sans-Serif" font-size="10.00">nrf905_set_tx_address</text>
</a>
</g>
</g>
<!-- Node1&#45;&gt;Node3 -->
<g id="edge2_Node000001_Node000003" class="edge">
<title>Node1&#45;&gt;Node3</title>
<g id="a_edge2_Node000001_Node000003"><a xlink:title=" ">
<path fill="none" stroke="#63b8ff" d="M98.18,-22.46C105.95,-21.41 114.11,-20.31 122.23,-19.21"/>
<polygon fill="#63b8ff" stroke="#63b8ff" points="122.69,-22.68 132.13,-17.87 121.76,-15.74 122.69,-22.68"/>
</a>
</g>
</g>
</g>
</svg>
