<?xml version="1.0" encoding="UTF-8" standalone="no"?>
<!DOCTYPE svg PUBLIC "-//W3C//DTD SVG 1.1//EN"
 "http://www.w3.org/Graphics/SVG/1.1/DTD/svg11.dtd">
<!-- Generated by graphviz version 13.1.0 (20250701.0955)
 -->
<!-- Title: nrf905 driver function Pages: 1 -->
<svg width="262pt" height="290pt"
 viewBox="0.00 0.00 262.00 290.00" xmlns="http://www.w3.org/2000/svg" xmlns:xlink="http://www.w3.org/1999/xlink">
<g id="graph0" class="graph" transform="scale(1 1) rotate(0) translate(4 286)">
<title>nrf905 driver function</title>
<!-- Node3 -->
<g id="Node000003" class="node">
<title>Node3</title>
<g id="a_Node000003"><a xlink:href="group__nrf905__basic__driver.html" target="_top" xlink:title="nrf905 basic driver modules">
<polygon fill="white" stroke="#666666" points="246.88,-282 150.62,-282 150.62,-250 246.88,-250 246.88,-282"/>
<text xml:space="preserve" text-anchor="start" x="158.62" y="-268.5" font-family="Helvetica,sans-Serif" font-size="10.00">nrf905 basic driver</text>
<text xml:space="preserve" text-anchor="middle" x="198.75" y="-256.5" font-family="Helvetica,sans-Serif" font-size="10.00"> function</text>
</a>
</g>
</g>
<!-- Node1 -->
<g id="Node000001" class="node">
<title>Node1</title>
<g id="a_Node000001"><a xlink:title="nrf905 driver modules">
<polygon fill="#999999" stroke="#666666" points="107.5,-151 0,-151 0,-131 107.5,-131 107.5,-151"/>
<text xml:space="preserve" text-anchor="middle" x="53.75" y="-137.5" font-family="Helvetica,sans-Serif" font-size="10.00">nrf905 driver function</text>
</a>
</g>
</g>
<!-- Node1&#45;&gt;Node3 -->
<g id="edge2" class="edge">
<title>Node1&#45;&gt;Node3</title>
<path fill="none" stroke="black" d="M68.29,-160.63C84.22,-182.55 112.44,-217.95 143.5,-241 147.75,-244.15 152.46,-247.04 157.27,-249.64"/>
<polygon fill="black" stroke="black" points="71.21,-158.7 62.57,-152.57 65.51,-162.75 71.21,-158.7"/>
</g>
<!-- Node6 -->
<g id="Node000006" class="node">
<title>Node6</title>
<g id="a_Node000006"><a xlink:href="group__nrf905__example__driver.html" target="_top" xlink:title="nrf905 example driver modules">
<polygon fill="white" stroke="#666666" points="253.62,-232 143.88,-232 143.88,-200 253.62,-200 253.62,-232"/>
<text xml:space="preserve" text-anchor="start" x="151.88" y="-218.5" font-family="Helvetica,sans-Serif" font-size="10.00">nrf905 example driver</text>
<text xml:space="preserve" text-anchor="middle" x="198.75" y="-206.5" font-family="Helvetica,sans-Serif" font-size="10.00"> function</text>
</a>
</g>
</g>
<!-- Node1&#45;&gt;Node6 -->
<g id="edge5" class="edge">
<title>Node1&#45;&gt;Node6</title>
<path fill="none" stroke="black" d="M81.73,-156.95C99.16,-167.07 122.44,-180.24 143.5,-191 149.13,-193.88 155.16,-196.8 161.08,-199.59"/>
<polygon fill="black" stroke="black" points="83.91,-154.17 73.51,-152.15 80.38,-160.22 83.91,-154.17"/>
</g>
<!-- Node4 -->
<g id="Node000004" class="node">
<title>Node4</title>
<g id="a_Node000004"><a xlink:href="group__nrf905__extern__driver.html" target="_top" xlink:title="nrf905 extern driver modules">
<polygon fill="white" stroke="#666666" points="248.75,-182 148.75,-182 148.75,-150 248.75,-150 248.75,-182"/>
<text xml:space="preserve" text-anchor="start" x="156.75" y="-168.5" font-family="Helvetica,sans-Serif" font-size="10.00">nrf905 extern driver</text>
<text xml:space="preserve" text-anchor="middle" x="198.75" y="-156.5" font-family="Helvetica,sans-Serif" font-size="10.00"> function</text>
</a>
</g>
</g>
<!-- Node1&#45;&gt;Node4 -->
<g id="edge3" class="edge">
<title>Node1&#45;&gt;Node4</title>
<path fill="none" stroke="black" d="M119.1,-152.25C129.05,-153.99 139.18,-155.76 148.71,-157.43"/>
<polygon fill="black" stroke="black" points="119.94,-148.84 109.49,-150.57 118.74,-155.74 119.94,-148.84"/>
</g>
<!-- Node5 -->
<g id="Node000005" class="node">
<title>Node5</title>
<g id="a_Node000005"><a xlink:href="group__nrf905__interface__driver.html" target="_top" xlink:title="nrf905 interface driver modules">
<polygon fill="white" stroke="#666666" points="254,-132 143.5,-132 143.5,-100 254,-100 254,-132"/>
<text xml:space="preserve" text-anchor="start" x="151.5" y="-118.5" font-family="Helvetica,sans-Serif" font-size="10.00">nrf905 interface driver</text>
<text xml:space="preserve" text-anchor="middle" x="198.75" y="-106.5" font-family="Helvetica,sans-Serif" font-size="10.00"> function</text>
</a>
</g>
</g>
<!-- Node1&#45;&gt;Node5 -->
<g id="edge4" class="edge">
<title>Node1&#45;&gt;Node5</title>
<path fill="none" stroke="black" d="M119.15,-129.74C127.12,-128.35 135.22,-126.93 143.02,-125.57"/>
<polygon fill="black" stroke="black" points="118.74,-126.26 109.49,-131.43 119.94,-133.16 118.74,-126.26"/>
</g>
<!-- Node2 -->
<g id="Node000002" class="node">
<title>Node2</title>
<g id="a_Node000002"><a xlink:href="group__nrf905__link__driver.html" target="_top" xlink:title="nrf905 link driver modules">
<polygon fill="white" stroke="#666666" points="242.75,-82 154.75,-82 154.75,-50 242.75,-50 242.75,-82"/>
<text xml:space="preserve" text-anchor="start" x="162.75" y="-68.5" font-family="Helvetica,sans-Serif" font-size="10.00">nrf905 link driver</text>
<text xml:space="preserve" text-anchor="middle" x="198.75" y="-56.5" font-family="Helvetica,sans-Serif" font-size="10.00"> function</text>
</a>
</g>
</g>
<!-- Node1&#45;&gt;Node2 -->
<g id="edge1" class="edge">
<title>Node1&#45;&gt;Node2</title>
<path fill="none" stroke="black" d="M81.73,-125.05C99.16,-114.93 122.44,-101.76 143.5,-91 149.13,-88.12 155.16,-85.2 161.08,-82.41"/>
<polygon fill="black" stroke="black" points="80.38,-121.78 73.51,-129.85 83.91,-127.83 80.38,-121.78"/>
</g>
<!-- Node7 -->
<g id="Node000007" class="node">
<title>Node7</title>
<g id="a_Node000007"><a xlink:href="group__nrf905__test__driver.html" target="_top" xlink:title="nrf905 test driver modules">
<polygon fill="white" stroke="#666666" points="243.5,-32 154,-32 154,0 243.5,0 243.5,-32"/>
<text xml:space="preserve" text-anchor="start" x="162" y="-18.5" font-family="Helvetica,sans-Serif" font-size="10.00">nrf905 test driver</text>
<text xml:space="preserve" text-anchor="middle" x="198.75" y="-6.5" font-family="Helvetica,sans-Serif" font-size="10.00"> function</text>
</a>
</g>
</g>
<!-- Node1&#45;&gt;Node7 -->
<g id="edge6" class="edge">
<title>Node1&#45;&gt;Node7</title>
<path fill="none" stroke="black" d="M68.29,-121.37C84.22,-99.45 112.44,-64.05 143.5,-41 147.75,-37.85 152.46,-34.96 157.27,-32.36"/>
<polygon fill="black" stroke="black" points="65.51,-119.25 62.57,-129.43 71.21,-123.3 65.51,-119.25"/>
</g>
</g>
</svg>
