<?xml version="1.0" encoding="UTF-8" standalone="no"?>
<!DOCTYPE svg PUBLIC "-//W3C//DTD SVG 1.1//EN"
 "http://www.w3.org/Graphics/SVG/1.1/DTD/svg11.dtd">
<!-- Generated by graphviz version 13.1.0 (20250701.0955)
 -->
<!-- Title: nrf905_basic_init Pages: 1 -->
<svg width="268pt" height="1674pt"
 viewBox="0.00 0.00 268.00 1674.00" xmlns="http://www.w3.org/2000/svg" xmlns:xlink="http://www.w3.org/1999/xlink">
<g id="graph0" class="graph" transform="scale(1 1) rotate(0) translate(4 1670)">
<title>nrf905_basic_init</title>
<!-- Node1 -->
<g id="Node000001" class="node">
<title>Node1</title>
<g id="a_Node000001"><a xlink:title="basic example init">
<polygon fill="#999999" stroke="#666666" points="89.5,-798 0,-798 0,-778 89.5,-778 89.5,-798"/>
<text xml:space="preserve" text-anchor="middle" x="44.75" y="-784.5" font-family="Helvetica,sans-Serif" font-size="10.00">nrf905_basic_init</text>
</a>
</g>
</g>
<!-- Node2 -->
<g id="Node000002" class="node">
<title>Node2</title>
<g id="a_Node000002"><a xlink:href="group__nrf905__basic__driver.html#gae2fd426ca4c09cba65251385318a72c9" target="_top" xlink:title="close the chip">
<polygon fill="white" stroke="#666666" points="228.5,-1666 157,-1666 157,-1646 228.5,-1646 228.5,-1666"/>
<text xml:space="preserve" text-anchor="middle" x="192.75" y="-1652.5" font-family="Helvetica,sans-Serif" font-size="10.00">nrf905_deinit</text>
</a>
</g>
</g>
<!-- Node1&#45;&gt;Node2 -->
<g id="edge1_Node000001_Node000002" class="edge">
<title>Node1&#45;&gt;Node2</title>
<g id="a_edge1_Node000001_Node000002"><a xlink:title=" ">
<path fill="none" stroke="#63b8ff" d="M46.03,-798.41C48.57,-890.82 69.14,-1569.07 125.5,-1637 130.81,-1643.39 138.11,-1647.72 145.93,-1650.62"/>
<polygon fill="#63b8ff" stroke="#63b8ff" points="144.75,-1653.93 155.33,-1653.35 146.7,-1647.2 144.75,-1653.93"/>
</a>
</g>
</g>
<!-- Node3 -->
<g id="Node000003" class="node">
<title>Node3</title>
<g id="a_Node000003"><a xlink:href="group__nrf905__basic__driver.html#ga333a6fea3cd1143f8b2d643a1759ad2e" target="_top" xlink:title="convert the frequency to the register raw data">
<polygon fill="white" stroke="#666666" points="257,-1628 128.5,-1628 128.5,-1596 257,-1596 257,-1628"/>
<text xml:space="preserve" text-anchor="start" x="136.5" y="-1614.5" font-family="Helvetica,sans-Serif" font-size="10.00">nrf905_frequency_convert</text>
<text xml:space="preserve" text-anchor="middle" x="192.75" y="-1602.5" font-family="Helvetica,sans-Serif" font-size="10.00">_to_register</text>
</a>
</g>
</g>
<!-- Node1&#45;&gt;Node3 -->
<g id="edge2_Node000001_Node000003" class="edge">
<title>Node1&#45;&gt;Node3</title>
<g id="a_edge2_Node000001_Node000003"><a xlink:title=" ">
<path fill="none" stroke="#63b8ff" d="M46.13,-798.32C49.47,-887.16 74.99,-1521.21 125.5,-1587 125.74,-1587.31 125.98,-1587.62 126.23,-1587.92"/>
<polygon fill="#63b8ff" stroke="#63b8ff" points="123.67,-1590.32 133.34,-1594.65 128.48,-1585.23 123.67,-1590.32"/>
</a>
</g>
</g>
<!-- Node4 -->
<g id="Node000004" class="node">
<title>Node4</title>
<g id="a_Node000004"><a xlink:href="group__nrf905__basic__driver.html#ga1b1c244a6a33fa58a89ef5eb73799564" target="_top" xlink:title="initialize the chip">
<polygon fill="white" stroke="#666666" points="223.25,-1578 162.25,-1578 162.25,-1558 223.25,-1558 223.25,-1578"/>
<text xml:space="preserve" text-anchor="middle" x="192.75" y="-1564.5" font-family="Helvetica,sans-Serif" font-size="10.00">nrf905_init</text>
</a>
</g>
</g>
<!-- Node1&#45;&gt;Node4 -->
<g id="edge3_Node000001_Node000004" class="edge">
<title>Node1&#45;&gt;Node4</title>
<g id="a_edge3_Node000001_Node000004"><a xlink:title=" ">
<path fill="none" stroke="#63b8ff" d="M46.15,-798.4C49.53,-885.28 74.81,-1488.57 125.5,-1549 131.98,-1556.73 141.38,-1561.42 151.06,-1564.25"/>
<polygon fill="#63b8ff" stroke="#63b8ff" points="149.98,-1567.6 160.51,-1566.38 151.52,-1560.77 149.98,-1567.6"/>
</a>
</g>
</g>
<!-- Node5 -->
<g id="Node000005" class="node">
<title>Node5</title>
<g id="a_Node000005"><a xlink:href="group__nrf905__interface__driver.html#gac6bf742c95b2d47973127c70c25a3945" target="_top" xlink:title="interface ce gpio deinit">
<polygon fill="white" stroke="#666666" points="243.5,-1540 142,-1540 142,-1508 243.5,-1508 243.5,-1540"/>
<text xml:space="preserve" text-anchor="start" x="150" y="-1526.5" font-family="Helvetica,sans-Serif" font-size="10.00">nrf905_interface_ce</text>
<text xml:space="preserve" text-anchor="middle" x="192.75" y="-1514.5" font-family="Helvetica,sans-Serif" font-size="10.00">_gpio_deinit</text>
</a>
</g>
</g>
<!-- Node1&#45;&gt;Node5 -->
<g id="edge4_Node000001_Node000005" class="edge">
<title>Node1&#45;&gt;Node5</title>
<g id="a_edge4_Node000001_Node000005"><a xlink:title=" ">
<path fill="none" stroke="#63b8ff" d="M46.27,-798.47C50.51,-882.18 80.38,-1440.96 125.5,-1499 127.52,-1501.59 129.83,-1503.92 132.37,-1506"/>
<polygon fill="#63b8ff" stroke="#63b8ff" points="130.16,-1508.74 140.43,-1511.36 134.04,-1502.91 130.16,-1508.74"/>
</a>
</g>
</g>
<!-- Node6 -->
<g id="Node000006" class="node">
<title>Node6</title>
<g id="a_Node000006"><a xlink:href="group__nrf905__interface__driver.html#ga3423e325ae88f207e6a5cab25eb8a09a" target="_top" xlink:title="interface ce gpio init">
<polygon fill="white" stroke="#666666" points="243.5,-1490 142,-1490 142,-1458 243.5,-1458 243.5,-1490"/>
<text xml:space="preserve" text-anchor="start" x="150" y="-1476.5" font-family="Helvetica,sans-Serif" font-size="10.00">nrf905_interface_ce</text>
<text xml:space="preserve" text-anchor="middle" x="192.75" y="-1464.5" font-family="Helvetica,sans-Serif" font-size="10.00">_gpio_init</text>
</a>
</g>
</g>
<!-- Node1&#45;&gt;Node6 -->
<g id="edge5_Node000001_Node000006" class="edge">
<title>Node1&#45;&gt;Node6</title>
<g id="a_edge5_Node000001_Node000006"><a xlink:title=" ">
<path fill="none" stroke="#63b8ff" d="M45.58,-798.46C44.55,-874.46 41.69,-1342.12 125.5,-1449 127.53,-1451.58 129.85,-1453.9 132.39,-1455.98"/>
<polygon fill="#63b8ff" stroke="#63b8ff" points="130.2,-1458.72 140.47,-1461.33 134.06,-1452.89 130.2,-1458.72"/>
</a>
</g>
</g>
<!-- Node7 -->
<g id="Node000007" class="node">
<title>Node7</title>
<g id="a_Node000007"><a xlink:href="group__nrf905__interface__driver.html#ga9a4aa9b33d59ca706f0b918dd1802367" target="_top" xlink:title="interface ce gpio write">
<polygon fill="white" stroke="#666666" points="243.5,-1440 142,-1440 142,-1408 243.5,-1408 243.5,-1440"/>
<text xml:space="preserve" text-anchor="start" x="150" y="-1426.5" font-family="Helvetica,sans-Serif" font-size="10.00">nrf905_interface_ce</text>
<text xml:space="preserve" text-anchor="middle" x="192.75" y="-1414.5" font-family="Helvetica,sans-Serif" font-size="10.00">_gpio_write</text>
</a>
</g>
</g>
<!-- Node1&#45;&gt;Node7 -->
<g id="edge6_Node000001_Node000007" class="edge">
<title>Node1&#45;&gt;Node7</title>
<g id="a_edge6_Node000001_Node000007"><a xlink:title=" ">
<path fill="none" stroke="#63b8ff" d="M45.7,-798.12C45.5,-869.8 47.62,-1300.68 125.5,-1399 127.54,-1401.57 129.87,-1403.88 132.42,-1405.96"/>
<polygon fill="#63b8ff" stroke="#63b8ff" points="130.24,-1408.71 140.51,-1411.29 134.09,-1402.86 130.24,-1408.71"/>
</a>
</g>
</g>
<!-- Node8 -->
<g id="Node000008" class="node">
<title>Node8</title>
<g id="a_Node000008"><a xlink:href="group__nrf905__interface__driver.html#ga26e7b9641a88b96a31eb8268bcd3921a" target="_top" xlink:title="interface print format data">
<polygon fill="white" stroke="#666666" points="251.38,-1390 134.12,-1390 134.12,-1358 251.38,-1358 251.38,-1390"/>
<text xml:space="preserve" text-anchor="start" x="142.12" y="-1376.5" font-family="Helvetica,sans-Serif" font-size="10.00">nrf905_interface_debug</text>
<text xml:space="preserve" text-anchor="middle" x="192.75" y="-1364.5" font-family="Helvetica,sans-Serif" font-size="10.00">_print</text>
</a>
</g>
</g>
<!-- Node1&#45;&gt;Node8 -->
<g id="edge7_Node000001_Node000008" class="edge">
<title>Node1&#45;&gt;Node8</title>
<g id="a_edge7_Node000001_Node000008"><a xlink:title=" ">
<path fill="none" stroke="#63b8ff" d="M45.83,-798.16C46.53,-866.53 53.68,-1259.38 125.5,-1349 125.75,-1349.31 125.99,-1349.61 126.25,-1349.91"/>
<polygon fill="#63b8ff" stroke="#63b8ff" points="123.74,-1352.36 133.48,-1356.54 128.48,-1347.2 123.74,-1352.36"/>
</a>
</g>
</g>
<!-- Node9 -->
<g id="Node000009" class="node">
<title>Node9</title>
<g id="a_Node000009"><a xlink:href="group__nrf905__interface__driver.html#ga449ddc5960c09d940e6d25c10af1884a" target="_top" xlink:title="interface delay ms">
<polygon fill="white" stroke="#666666" points="259.25,-1340 126.25,-1340 126.25,-1320 259.25,-1320 259.25,-1340"/>
<text xml:space="preserve" text-anchor="middle" x="192.75" y="-1326.5" font-family="Helvetica,sans-Serif" font-size="10.00">nrf905_interface_delay_ms</text>
</a>
</g>
</g>
<!-- Node1&#45;&gt;Node9 -->
<g id="edge8_Node000001_Node000009" class="edge">
<title>Node1&#45;&gt;Node9</title>
<g id="a_edge8_Node000001_Node000009"><a xlink:title=" ">
<path fill="none" stroke="#63b8ff" d="M45.86,-798.39C46.77,-864.89 54.98,-1230.83 125.5,-1311 125.97,-1311.53 126.45,-1312.05 126.95,-1312.56"/>
<polygon fill="#63b8ff" stroke="#63b8ff" points="124.74,-1315.27 134.78,-1318.63 129.02,-1309.74 124.74,-1315.27"/>
</a>
</g>
</g>
<!-- Node10 -->
<g id="Node000010" class="node">
<title>Node10</title>
<g id="a_Node000010"><a xlink:href="group__nrf905__interface__driver.html#ga9983c1e2df0ff0ed7de2b780d89fe3d1" target="_top" xlink:title="interface pwr up gpio deinit">
<polygon fill="white" stroke="#666666" points="246.12,-1302 139.38,-1302 139.38,-1270 246.12,-1270 246.12,-1302"/>
<text xml:space="preserve" text-anchor="start" x="147.38" y="-1288.5" font-family="Helvetica,sans-Serif" font-size="10.00">nrf905_interface_pwr</text>
<text xml:space="preserve" text-anchor="middle" x="192.75" y="-1276.5" font-family="Helvetica,sans-Serif" font-size="10.00">_up_gpio_deinit</text>
</a>
</g>
</g>
<!-- Node1&#45;&gt;Node10 -->
<g id="edge9_Node000001_Node000010" class="edge">
<title>Node1&#45;&gt;Node10</title>
<g id="a_edge9_Node000001_Node000010"><a xlink:title=" ">
<path fill="none" stroke="#63b8ff" d="M46.12,-798.12C48.56,-859.96 64.25,-1186.56 125.5,-1261 126.91,-1262.71 128.44,-1264.3 130.08,-1265.78"/>
<polygon fill="#63b8ff" stroke="#63b8ff" points="127.68,-1268.36 137.82,-1271.44 131.81,-1262.71 127.68,-1268.36"/>
</a>
</g>
</g>
<!-- Node11 -->
<g id="Node000011" class="node">
<title>Node11</title>
<g id="a_Node000011"><a xlink:href="group__nrf905__interface__driver.html#ga419648fc25f026c218ff821a7e6223ba" target="_top" xlink:title="interface pwr up gpio init">
<polygon fill="white" stroke="#666666" points="246.12,-1252 139.38,-1252 139.38,-1220 246.12,-1220 246.12,-1252"/>
<text xml:space="preserve" text-anchor="start" x="147.38" y="-1238.5" font-family="Helvetica,sans-Serif" font-size="10.00">nrf905_interface_pwr</text>
<text xml:space="preserve" text-anchor="middle" x="192.75" y="-1226.5" font-family="Helvetica,sans-Serif" font-size="10.00">_up_gpio_init</text>
</a>
</g>
</g>
<!-- Node1&#45;&gt;Node11 -->
<g id="edge10_Node000001_Node000011" class="edge">
<title>Node1&#45;&gt;Node11</title>
<g id="a_edge10_Node000001_Node000011"><a xlink:title=" ">
<path fill="none" stroke="#63b8ff" d="M46.34,-798.17C49.91,-856.19 70.26,-1145.17 125.5,-1211 126.92,-1212.7 128.47,-1214.28 130.12,-1215.75"/>
<polygon fill="#63b8ff" stroke="#63b8ff" points="127.75,-1218.35 137.9,-1221.37 131.85,-1212.68 127.75,-1218.35"/>
</a>
</g>
</g>
<!-- Node12 -->
<g id="Node000012" class="node">
<title>Node12</title>
<g id="a_Node000012"><a xlink:href="group__nrf905__interface__driver.html#ga471f76718f122b874b5dea67a3061e31" target="_top" xlink:title="interface pwr up gpio write">
<polygon fill="white" stroke="#666666" points="246.12,-1202 139.38,-1202 139.38,-1170 246.12,-1170 246.12,-1202"/>
<text xml:space="preserve" text-anchor="start" x="147.38" y="-1188.5" font-family="Helvetica,sans-Serif" font-size="10.00">nrf905_interface_pwr</text>
<text xml:space="preserve" text-anchor="middle" x="192.75" y="-1176.5" font-family="Helvetica,sans-Serif" font-size="10.00">_up_gpio_write</text>
</a>
</g>
</g>
<!-- Node1&#45;&gt;Node12 -->
<g id="edge11_Node000001_Node000012" class="edge">
<title>Node1&#45;&gt;Node12</title>
<g id="a_edge11_Node000001_Node000012"><a xlink:title=" ">
<path fill="none" stroke="#63b8ff" d="M46.64,-798.36C51.47,-852.61 76.28,-1103.76 125.5,-1161 126.8,-1162.51 128.19,-1163.92 129.67,-1165.25"/>
<polygon fill="#63b8ff" stroke="#63b8ff" points="127.54,-1168.03 137.69,-1171.09 131.66,-1162.37 127.54,-1168.03"/>
</a>
</g>
</g>
<!-- Node13 -->
<g id="Node000013" class="node">
<title>Node13</title>
<g id="a_Node000013"><a xlink:href="group__nrf905__interface__driver.html#ga028bd926939d6fe81af4eb3832d283e8" target="_top" xlink:title="interface spi bus deinit">
<polygon fill="white" stroke="#666666" points="244.62,-1152 140.88,-1152 140.88,-1120 244.62,-1120 244.62,-1152"/>
<text xml:space="preserve" text-anchor="start" x="148.88" y="-1138.5" font-family="Helvetica,sans-Serif" font-size="10.00">nrf905_interface_spi</text>
<text xml:space="preserve" text-anchor="middle" x="192.75" y="-1126.5" font-family="Helvetica,sans-Serif" font-size="10.00">_deinit</text>
</a>
</g>
</g>
<!-- Node1&#45;&gt;Node13 -->
<g id="edge12_Node000001_Node000013" class="edge">
<title>Node1&#45;&gt;Node13</title>
<g id="a_edge12_Node000001_Node000013"><a xlink:title=" ">
<path fill="none" stroke="#63b8ff" d="M46.99,-798.26C53.19,-847.83 82.17,-1062.19 125.5,-1111 127.22,-1112.94 129.11,-1114.73 131.13,-1116.39"/>
<polygon fill="#63b8ff" stroke="#63b8ff" points="129.16,-1119.28 139.42,-1121.94 133.06,-1113.46 129.16,-1119.28"/>
</a>
</g>
</g>
<!-- Node14 -->
<g id="Node000014" class="node">
<title>Node14</title>
<g id="a_Node000014"><a xlink:href="group__nrf905__interface__driver.html#ga078bffa007af0cafa8a7b45c90dd4931" target="_top" xlink:title="interface spi bus init">
<polygon fill="white" stroke="#666666" points="253.62,-1102 131.88,-1102 131.88,-1082 253.62,-1082 253.62,-1102"/>
<text xml:space="preserve" text-anchor="middle" x="192.75" y="-1088.5" font-family="Helvetica,sans-Serif" font-size="10.00">nrf905_interface_spi_init</text>
</a>
</g>
</g>
<!-- Node1&#45;&gt;Node14 -->
<g id="edge13_Node000001_Node000014" class="edge">
<title>Node1&#45;&gt;Node14</title>
<g id="a_edge13_Node000001_Node000014"><a xlink:title=" ">
<path fill="none" stroke="#63b8ff" d="M45.32,-798.29C44.19,-839.27 45.65,-992.63 125.5,-1073 126.26,-1073.76 127.04,-1074.49 127.85,-1075.19"/>
<polygon fill="#63b8ff" stroke="#63b8ff" points="125.88,-1078.09 136.12,-1080.82 129.82,-1072.3 125.88,-1078.09"/>
</a>
</g>
</g>
<!-- Node15 -->
<g id="Node000015" class="node">
<title>Node15</title>
<g id="a_Node000015"><a xlink:href="group__nrf905__interface__driver.html#gaa15b294a81e0e5a522f2668c0567e16c" target="_top" xlink:title="interface spi bus read">
<polygon fill="white" stroke="#666666" points="256.62,-1064 128.88,-1064 128.88,-1044 256.62,-1044 256.62,-1064"/>
<text xml:space="preserve" text-anchor="middle" x="192.75" y="-1050.5" font-family="Helvetica,sans-Serif" font-size="10.00">nrf905_interface_spi_read</text>
</a>
</g>
</g>
<!-- Node1&#45;&gt;Node15 -->
<g id="edge14_Node000001_Node000015" class="edge">
<title>Node1&#45;&gt;Node15</title>
<g id="a_edge14_Node000001_Node000015"><a xlink:title=" ">
<path fill="none" stroke="#63b8ff" d="M45.84,-798.46C46.75,-836.21 55.06,-966.85 125.5,-1035 126.38,-1035.85 127.3,-1036.67 128.25,-1037.45"/>
<polygon fill="#63b8ff" stroke="#63b8ff" points="125.97,-1040.14 136.25,-1042.69 129.81,-1034.28 125.97,-1040.14"/>
</a>
</g>
</g>
<!-- Node16 -->
<g id="Node000016" class="node">
<title>Node16</title>
<g id="a_Node000016"><a xlink:href="group__nrf905__interface__driver.html#ga09f0a0dac464c8fb009de3d93b558f81" target="_top" xlink:title="interface spi bus transmit">
<polygon fill="white" stroke="#666666" points="244.62,-1026 140.88,-1026 140.88,-994 244.62,-994 244.62,-1026"/>
<text xml:space="preserve" text-anchor="start" x="148.88" y="-1012.5" font-family="Helvetica,sans-Serif" font-size="10.00">nrf905_interface_spi</text>
<text xml:space="preserve" text-anchor="middle" x="192.75" y="-1000.5" font-family="Helvetica,sans-Serif" font-size="10.00">_transmit</text>
</a>
</g>
</g>
<!-- Node1&#45;&gt;Node16 -->
<g id="edge15_Node000001_Node000016" class="edge">
<title>Node1&#45;&gt;Node16</title>
<g id="a_edge15_Node000001_Node000016"><a xlink:title=" ">
<path fill="none" stroke="#63b8ff" d="M46.98,-798.16C51.4,-830.18 69.27,-930.09 125.5,-985 127.29,-986.74 129.21,-988.37 131.23,-989.88"/>
<polygon fill="#63b8ff" stroke="#63b8ff" points="129.04,-992.64 139.36,-995.02 132.78,-986.72 129.04,-992.64"/>
</a>
</g>
</g>
<!-- Node17 -->
<g id="Node000017" class="node">
<title>Node17</title>
<g id="a_Node000017"><a xlink:href="group__nrf905__interface__driver.html#ga37cfde54552881bffab26b983380d374" target="_top" xlink:title="interface spi bus write">
<polygon fill="white" stroke="#666666" points="244.62,-976 140.88,-976 140.88,-944 244.62,-944 244.62,-976"/>
<text xml:space="preserve" text-anchor="start" x="148.88" y="-962.5" font-family="Helvetica,sans-Serif" font-size="10.00">nrf905_interface_spi</text>
<text xml:space="preserve" text-anchor="middle" x="192.75" y="-950.5" font-family="Helvetica,sans-Serif" font-size="10.00">_write</text>
</a>
</g>
</g>
<!-- Node1&#45;&gt;Node17 -->
<g id="edge16_Node000001_Node000017" class="edge">
<title>Node1&#45;&gt;Node17</title>
<g id="a_edge16_Node000001_Node000017"><a xlink:title=" ">
<path fill="none" stroke="#63b8ff" d="M48.53,-798.13C56.25,-824.46 80.43,-895.68 125.5,-935 127.17,-936.45 128.93,-937.83 130.76,-939.13"/>
<polygon fill="#63b8ff" stroke="#63b8ff" points="128.76,-942.01 139.13,-944.2 132.39,-936.02 128.76,-942.01"/>
</a>
</g>
</g>
<!-- Node18 -->
<g id="Node000018" class="node">
<title>Node18</title>
<g id="a_Node000018"><a xlink:href="group__nrf905__interface__driver.html#gaeb344a9f814f8a702d5b6931d2cf4bf8" target="_top" xlink:title="interface tx en gpio deinit">
<polygon fill="white" stroke="#666666" points="242.38,-926 143.12,-926 143.12,-894 242.38,-894 242.38,-926"/>
<text xml:space="preserve" text-anchor="start" x="151.12" y="-912.5" font-family="Helvetica,sans-Serif" font-size="10.00">nrf905_interface_tx</text>
<text xml:space="preserve" text-anchor="middle" x="192.75" y="-900.5" font-family="Helvetica,sans-Serif" font-size="10.00">_en_gpio_deinit</text>
</a>
</g>
</g>
<!-- Node1&#45;&gt;Node18 -->
<g id="edge17_Node000001_Node000018" class="edge">
<title>Node1&#45;&gt;Node18</title>
<g id="a_edge17_Node000001_Node000018"><a xlink:title=" ">
<path fill="none" stroke="#63b8ff" d="M51.65,-798.28C63.34,-817.81 91.3,-860.49 125.5,-885 127.82,-886.66 130.26,-888.23 132.78,-889.7"/>
<polygon fill="#63b8ff" stroke="#63b8ff" points="131,-892.72 141.49,-894.23 134.24,-886.51 131,-892.72"/>
</a>
</g>
</g>
<!-- Node19 -->
<g id="Node000019" class="node">
<title>Node19</title>
<g id="a_Node000019"><a xlink:href="group__nrf905__interface__driver.html#gaa4bfaa4927c7854f9339f64ea4685e2b" target="_top" xlink:title="interface tx en gpio init">
<polygon fill="white" stroke="#666666" points="242.38,-876 143.12,-876 143.12,-844 242.38,-844 242.38,-876"/>
<text xml:space="preserve" text-anchor="start" x="151.12" y="-862.5" font-family="Helvetica,sans-Serif" font-size="10.00">nrf905_interface_tx</text>
<text xml:space="preserve" text-anchor="middle" x="192.75" y="-850.5" font-family="Helvetica,sans-Serif" font-size="10.00">_en_gpio_init</text>
</a>
</g>
</g>
<!-- Node1&#45;&gt;Node19 -->
<g id="edge18_Node000001_Node000019" class="edge">
<title>Node1&#45;&gt;Node19</title>
<g id="a_edge18_Node000001_Node000019"><a xlink:title=" ">
<path fill="none" stroke="#63b8ff" d="M61.5,-798.38C77.27,-808.5 102.45,-823.96 125.5,-835 128.41,-836.39 131.42,-837.77 134.48,-839.1"/>
<polygon fill="#63b8ff" stroke="#63b8ff" points="133.02,-842.29 143.6,-842.93 135.73,-835.83 133.02,-842.29"/>
</a>
</g>
</g>
<!-- Node20 -->
<g id="Node000020" class="node">
<title>Node20</title>
<g id="a_Node000020"><a xlink:href="group__nrf905__interface__driver.html#ga626c5ec96add7dfc70da8377a830de2e" target="_top" xlink:title="interface tx en gpio write">
<polygon fill="white" stroke="#666666" points="242.38,-826 143.12,-826 143.12,-794 242.38,-794 242.38,-826"/>
<text xml:space="preserve" text-anchor="start" x="151.12" y="-812.5" font-family="Helvetica,sans-Serif" font-size="10.00">nrf905_interface_tx</text>
<text xml:space="preserve" text-anchor="middle" x="192.75" y="-800.5" font-family="Helvetica,sans-Serif" font-size="10.00">_en_gpio_write</text>
</a>
</g>
</g>
<!-- Node1&#45;&gt;Node20 -->
<g id="edge19_Node000001_Node000020" class="edge">
<title>Node1&#45;&gt;Node20</title>
<g id="a_edge19_Node000001_Node000020"><a xlink:title=" ">
<path fill="none" stroke="#63b8ff" d="M89.95,-794.66C103.13,-796.65 117.8,-798.86 131.81,-800.97"/>
<polygon fill="#63b8ff" stroke="#63b8ff" points="130.95,-804.38 141.36,-802.41 131.99,-797.46 130.95,-804.38"/>
</a>
</g>
</g>
<!-- Node21 -->
<g id="Node000021" class="node">
<title>Node21</title>
<g id="a_Node000021"><a xlink:href="group__nrf905__basic__driver.html#gac33ebb8477bdd19138f7fbaa48747874" target="_top" xlink:title="enable or disable the auto retransmit">
<polygon fill="white" stroke="#666666" points="260,-776 125.5,-776 125.5,-756 260,-756 260,-776"/>
<text xml:space="preserve" text-anchor="middle" x="192.75" y="-762.5" font-family="Helvetica,sans-Serif" font-size="10.00">nrf905_set_auto_retransmit</text>
</a>
</g>
</g>
<!-- Node1&#45;&gt;Node21 -->
<g id="edge20_Node000001_Node000021" class="edge">
<title>Node1&#45;&gt;Node21</title>
<g id="a_edge20_Node000001_Node000021"><a xlink:title=" ">
<path fill="none" stroke="#63b8ff" d="M89.95,-781.34C97.57,-780.19 105.68,-778.97 113.88,-777.73"/>
<polygon fill="#63b8ff" stroke="#63b8ff" points="114.21,-781.22 123.57,-776.27 113.16,-774.3 114.21,-781.22"/>
</a>
</g>
</g>
<!-- Node22 -->
<g id="Node000022" class="node">
<title>Node22</title>
<g id="a_Node000022"><a xlink:href="group__nrf905__basic__driver.html#gae14096416fbb649535b64be148612907" target="_top" xlink:title="enable or disable the crc">
<polygon fill="white" stroke="#666666" points="233,-738 152.5,-738 152.5,-718 233,-718 233,-738"/>
<text xml:space="preserve" text-anchor="middle" x="192.75" y="-724.5" font-family="Helvetica,sans-Serif" font-size="10.00">nrf905_set_crc</text>
</a>
</g>
</g>
<!-- Node1&#45;&gt;Node22 -->
<g id="edge21_Node000001_Node000022" class="edge">
<title>Node1&#45;&gt;Node22</title>
<g id="a_edge21_Node000001_Node000022"><a xlink:title=" ">
<path fill="none" stroke="#63b8ff" d="M63.65,-777.51C79.51,-768.53 103.5,-755.71 125.5,-747 130.52,-745.01 135.83,-743.13 141.17,-741.39"/>
<polygon fill="#63b8ff" stroke="#63b8ff" points="142.13,-744.76 150.64,-738.45 140.06,-738.07 142.13,-744.76"/>
</a>
</g>
</g>
<!-- Node23 -->
<g id="Node000023" class="node">
<title>Node23</title>
<g id="a_Node000023"><a xlink:href="group__nrf905__basic__driver.html#ga370949021c7142031aa5a2c252505060" target="_top" xlink:title="set the crc mode">
<polygon fill="white" stroke="#666666" points="247.62,-700 137.88,-700 137.88,-680 247.62,-680 247.62,-700"/>
<text xml:space="preserve" text-anchor="middle" x="192.75" y="-686.5" font-family="Helvetica,sans-Serif" font-size="10.00">nrf905_set_crc_mode</text>
</a>
</g>
</g>
<!-- Node1&#45;&gt;Node23 -->
<g id="edge22_Node000001_Node000023" class="edge">
<title>Node1&#45;&gt;Node23</title>
<g id="a_edge22_Node000001_Node000023"><a xlink:title=" ">
<path fill="none" stroke="#63b8ff" d="M53.36,-777.62C66.3,-760.72 94.22,-727.32 125.5,-709 128.12,-707.47 130.87,-706.05 133.7,-704.74"/>
<polygon fill="#63b8ff" stroke="#63b8ff" points="134.86,-708.05 142.81,-701.04 132.23,-701.56 134.86,-708.05"/>
</a>
</g>
</g>
<!-- Node24 -->
<g id="Node000024" class="node">
<title>Node24</title>
<g id="a_Node000024"><a xlink:href="group__nrf905__basic__driver.html#ga813852d763a0e663973c6bfa688a1263" target="_top" xlink:title="set the crystal oscillator frequency">
<polygon fill="white" stroke="#666666" points="246.88,-662 138.62,-662 138.62,-630 246.88,-630 246.88,-662"/>
<text xml:space="preserve" text-anchor="start" x="146.62" y="-648.5" font-family="Helvetica,sans-Serif" font-size="10.00">nrf905_set_crystal</text>
<text xml:space="preserve" text-anchor="middle" x="192.75" y="-636.5" font-family="Helvetica,sans-Serif" font-size="10.00">_oscillator_frequency</text>
</a>
</g>
</g>
<!-- Node1&#45;&gt;Node24 -->
<g id="edge23_Node000001_Node000024" class="edge">
<title>Node1&#45;&gt;Node24</title>
<g id="a_edge23_Node000001_Node000024"><a xlink:title=" ">
<path fill="none" stroke="#63b8ff" d="M50.13,-777.68C60.19,-755.17 87.06,-701.25 125.5,-671 126.8,-669.98 128.14,-669 129.52,-668.05"/>
<polygon fill="#63b8ff" stroke="#63b8ff" points="131.01,-671.24 137.81,-663.11 127.43,-665.23 131.01,-671.24"/>
</a>
</g>
</g>
<!-- Node25 -->
<g id="Node000025" class="node">
<title>Node25</title>
<g id="a_Node000025"><a xlink:href="group__nrf905__basic__driver.html#ga53213ab0dbc410ca2ef200c39b729bb4" target="_top" xlink:title="enable or disable the chip">
<polygon fill="white" stroke="#666666" points="240.5,-612 145,-612 145,-592 240.5,-592 240.5,-612"/>
<text xml:space="preserve" text-anchor="middle" x="192.75" y="-598.5" font-family="Helvetica,sans-Serif" font-size="10.00">nrf905_set_enable</text>
</a>
</g>
</g>
<!-- Node1&#45;&gt;Node25 -->
<g id="edge24_Node000001_Node000025" class="edge">
<title>Node1&#45;&gt;Node25</title>
<g id="a_edge24_Node000001_Node000025"><a xlink:title=" ">
<path fill="none" stroke="#63b8ff" d="M47.64,-777.57C53.52,-748.24 74.24,-664.38 125.5,-621 128.2,-618.72 131.16,-616.71 134.28,-614.94"/>
<polygon fill="#63b8ff" stroke="#63b8ff" points="135.74,-618.12 143.32,-610.71 132.78,-611.78 135.74,-618.12"/>
</a>
</g>
</g>
<!-- Node26 -->
<g id="Node000026" class="node">
<title>Node26</title>
<g id="a_Node000026"><a xlink:href="group__nrf905__basic__driver.html#ga1754eb719357b74c00c032d4487d3628" target="_top" xlink:title="set the frequency">
<polygon fill="white" stroke="#666666" points="247.62,-574 137.88,-574 137.88,-554 247.62,-554 247.62,-574"/>
<text xml:space="preserve" text-anchor="middle" x="192.75" y="-560.5" font-family="Helvetica,sans-Serif" font-size="10.00">nrf905_set_frequency</text>
</a>
</g>
</g>
<!-- Node1&#45;&gt;Node26 -->
<g id="edge25_Node000001_Node000026" class="edge">
<title>Node1&#45;&gt;Node26</title>
<g id="a_edge25_Node000001_Node000026"><a xlink:title=" ">
<path fill="none" stroke="#63b8ff" d="M46.61,-777.7C49.96,-744.32 65.12,-638.08 125.5,-583 126.57,-582.02 127.68,-581.1 128.84,-580.22"/>
<polygon fill="#63b8ff" stroke="#63b8ff" points="130.39,-583.38 137.08,-575.16 126.73,-577.41 130.39,-583.38"/>
</a>
</g>
</g>
<!-- Node27 -->
<g id="Node000027" class="node">
<title>Node27</title>
<g id="a_Node000027"><a xlink:href="group__nrf905__basic__driver.html#gac80028b743f98fd28c5def18976171f9" target="_top" xlink:title="set the mode">
<polygon fill="white" stroke="#666666" points="238.25,-536 147.25,-536 147.25,-516 238.25,-516 238.25,-536"/>
<text xml:space="preserve" text-anchor="middle" x="192.75" y="-522.5" font-family="Helvetica,sans-Serif" font-size="10.00">nrf905_set_mode</text>
</a>
</g>
</g>
<!-- Node1&#45;&gt;Node27 -->
<g id="edge26_Node000001_Node000027" class="edge">
<title>Node1&#45;&gt;Node27</title>
<g id="a_edge26_Node000001_Node000027"><a xlink:title=" ">
<path fill="none" stroke="#63b8ff" d="M45.9,-777.71C47.01,-740.55 55.93,-611.98 125.5,-545 128.75,-541.87 132.49,-539.25 136.49,-537.05"/>
<polygon fill="#63b8ff" stroke="#63b8ff" points="137.77,-540.31 145.48,-533.05 134.92,-533.92 137.77,-540.31"/>
</a>
</g>
</g>
<!-- Node28 -->
<g id="Node000028" class="node">
<title>Node28</title>
<g id="a_Node000028"><a xlink:href="group__nrf905__basic__driver.html#ga0df5a1e461de3fd90980de6c40b35fc9" target="_top" xlink:title="enable or disable the output clock">
<polygon fill="white" stroke="#666666" points="254,-498 131.5,-498 131.5,-478 254,-478 254,-498"/>
<text xml:space="preserve" text-anchor="middle" x="192.75" y="-484.5" font-family="Helvetica,sans-Serif" font-size="10.00">nrf905_set_output_clock</text>
</a>
</g>
</g>
<!-- Node1&#45;&gt;Node28 -->
<g id="edge27_Node000001_Node000028" class="edge">
<title>Node1&#45;&gt;Node28</title>
<g id="a_edge27_Node000001_Node000028"><a xlink:title=" ">
<path fill="none" stroke="#63b8ff" d="M45.36,-777.58C44.45,-736.74 46.72,-586 125.5,-507 126.37,-506.13 127.27,-505.3 128.2,-504.51"/>
<polygon fill="#63b8ff" stroke="#63b8ff" points="129.78,-507.67 136.13,-499.19 125.87,-501.86 129.78,-507.67"/>
</a>
</g>
</g>
<!-- Node29 -->
<g id="Node000029" class="node">
<title>Node29</title>
<g id="a_Node000029"><a xlink:href="group__nrf905__basic__driver.html#gac7e200d770a9bd0e487a564ec2d5d72e" target="_top" xlink:title="set the output clock frequency">
<polygon fill="white" stroke="#666666" points="254,-460 131.5,-460 131.5,-428 254,-428 254,-460"/>
<text xml:space="preserve" text-anchor="start" x="139.5" y="-446.5" font-family="Helvetica,sans-Serif" font-size="10.00">nrf905_set_output_clock</text>
<text xml:space="preserve" text-anchor="middle" x="192.75" y="-434.5" font-family="Helvetica,sans-Serif" font-size="10.00">_frequency</text>
</a>
</g>
</g>
<!-- Node1&#45;&gt;Node29 -->
<g id="edge28_Node000001_Node000029" class="edge">
<title>Node1&#45;&gt;Node29</title>
<g id="a_edge28_Node000001_Node000029"><a xlink:title=" ">
<path fill="none" stroke="#63b8ff" d="M47.05,-777.54C53.42,-727.97 82.7,-517.07 125.5,-469 125.96,-468.48 126.43,-467.98 126.91,-467.48"/>
<polygon fill="#63b8ff" stroke="#63b8ff" points="128.93,-470.36 134.41,-461.3 124.47,-464.96 128.93,-470.36"/>
</a>
</g>
</g>
<!-- Node30 -->
<g id="Node000030" class="node">
<title>Node30</title>
<g id="a_Node000030"><a xlink:href="group__nrf905__basic__driver.html#ga44c370f4cb0ccaa860ea8a17842488e6" target="_top" xlink:title="set the output power">
<polygon fill="white" stroke="#666666" points="255.5,-410 130,-410 130,-390 255.5,-390 255.5,-410"/>
<text xml:space="preserve" text-anchor="middle" x="192.75" y="-396.5" font-family="Helvetica,sans-Serif" font-size="10.00">nrf905_set_output_power</text>
</a>
</g>
</g>
<!-- Node1&#45;&gt;Node30 -->
<g id="edge29_Node000001_Node000030" class="edge">
<title>Node1&#45;&gt;Node30</title>
<g id="a_edge29_Node000001_Node000030"><a xlink:title=" ">
<path fill="none" stroke="#63b8ff" d="M46.57,-777.68C51.07,-723.63 74.45,-473.56 125.5,-419 126.1,-418.36 126.72,-417.74 127.35,-417.15"/>
<polygon fill="#63b8ff" stroke="#63b8ff" points="129.27,-420.08 135.29,-411.36 125.15,-414.42 129.27,-420.08"/>
</a>
</g>
</g>
<!-- Node31 -->
<g id="Node000031" class="node">
<title>Node31</title>
<g id="a_Node000031"><a xlink:href="group__nrf905__basic__driver.html#ga37213575f588ca96afdc358c859b0652" target="_top" xlink:title="set the pll mode">
<polygon fill="white" stroke="#666666" points="245.75,-372 139.75,-372 139.75,-352 245.75,-352 245.75,-372"/>
<text xml:space="preserve" text-anchor="middle" x="192.75" y="-358.5" font-family="Helvetica,sans-Serif" font-size="10.00">nrf905_set_pll_mode</text>
</a>
</g>
</g>
<!-- Node1&#45;&gt;Node31 -->
<g id="edge30_Node000001_Node000031" class="edge">
<title>Node1&#45;&gt;Node31</title>
<g id="a_edge30_Node000001_Node000031"><a xlink:title=" ">
<path fill="none" stroke="#63b8ff" d="M46.34,-777.78C49.84,-720.7 69.64,-441.88 125.5,-381 126.83,-379.55 128.27,-378.2 129.8,-376.95"/>
<polygon fill="#63b8ff" stroke="#63b8ff" points="131.5,-380.02 138.03,-371.68 127.72,-374.13 131.5,-380.02"/>
</a>
</g>
</g>
<!-- Node32 -->
<g id="Node000032" class="node">
<title>Node32</title>
<g id="a_Node000032"><a xlink:href="group__nrf905__basic__driver.html#ga6d6163bcc558797ee4ba00f8ee8458a8" target="_top" xlink:title="set the power up">
<polygon fill="white" stroke="#666666" points="247.25,-334 138.25,-334 138.25,-314 247.25,-314 247.25,-334"/>
<text xml:space="preserve" text-anchor="middle" x="192.75" y="-320.5" font-family="Helvetica,sans-Serif" font-size="10.00">nrf905_set_power_up</text>
</a>
</g>
</g>
<!-- Node1&#45;&gt;Node32 -->
<g id="edge31_Node000001_Node000032" class="edge">
<title>Node1&#45;&gt;Node32</title>
<g id="a_edge31_Node000001_Node000032"><a xlink:title=" ">
<path fill="none" stroke="#63b8ff" d="M46.16,-777.63C48.77,-717.14 64.88,-410.14 125.5,-343 126.49,-341.9 127.54,-340.86 128.65,-339.89"/>
<polygon fill="#63b8ff" stroke="#63b8ff" points="130.46,-342.88 136.71,-334.33 126.49,-337.12 130.46,-342.88"/>
</a>
</g>
</g>
<!-- Node33 -->
<g id="Node000033" class="node">
<title>Node33</title>
<g id="a_Node000033"><a xlink:href="group__nrf905__basic__driver.html#ga8207e107c2957ee8e7123920cbb71f53" target="_top" xlink:title="set the rx address">
<polygon fill="white" stroke="#666666" points="250.25,-296 135.25,-296 135.25,-276 250.25,-276 250.25,-296"/>
<text xml:space="preserve" text-anchor="middle" x="192.75" y="-282.5" font-family="Helvetica,sans-Serif" font-size="10.00">nrf905_set_rx_address</text>
</a>
</g>
</g>
<!-- Node1&#45;&gt;Node33 -->
<g id="edge32_Node000001_Node000033" class="edge">
<title>Node1&#45;&gt;Node33</title>
<g id="a_edge32_Node000001_Node000033"><a xlink:title=" ">
<path fill="none" stroke="#63b8ff" d="M46,-777.59C47.76,-714.04 60.07,-378.47 125.5,-305 125.97,-304.47 126.46,-303.95 126.96,-303.45"/>
<polygon fill="#63b8ff" stroke="#63b8ff" points="129.03,-306.27 134.82,-297.4 124.76,-300.72 129.03,-306.27"/>
</a>
</g>
</g>
<!-- Node34 -->
<g id="Node000034" class="node">
<title>Node34</title>
<g id="a_Node000034"><a xlink:href="group__nrf905__basic__driver.html#ga7b7dde1f819a49544df0b6440d7b5cdf" target="_top" xlink:title="set the rx address width">
<polygon fill="white" stroke="#666666" points="250.25,-258 135.25,-258 135.25,-226 250.25,-226 250.25,-258"/>
<text xml:space="preserve" text-anchor="start" x="143.25" y="-244.5" font-family="Helvetica,sans-Serif" font-size="10.00">nrf905_set_rx_address</text>
<text xml:space="preserve" text-anchor="middle" x="192.75" y="-232.5" font-family="Helvetica,sans-Serif" font-size="10.00">_width</text>
</a>
</g>
</g>
<!-- Node1&#45;&gt;Node34 -->
<g id="edge33_Node000001_Node000034" class="edge">
<title>Node1&#45;&gt;Node34</title>
<g id="a_edge33_Node000001_Node000034"><a xlink:title=" ">
<path fill="none" stroke="#63b8ff" d="M45.95,-777.72C47.43,-711.91 58.54,-349.65 125.5,-267 125.84,-266.58 126.18,-266.17 126.54,-265.77"/>
<polygon fill="#63b8ff" stroke="#63b8ff" points="128.69,-268.54 133.8,-259.26 124.02,-263.32 128.69,-268.54"/>
</a>
</g>
</g>
<!-- Node35 -->
<g id="Node000035" class="node">
<title>Node35</title>
<g id="a_Node000035"><a xlink:href="group__nrf905__basic__driver.html#gaa78063939a28018d1aa6b0fa7d0d8ea9" target="_top" xlink:title="set the rx mode">
<polygon fill="white" stroke="#666666" points="245,-208 140.5,-208 140.5,-188 245,-188 245,-208"/>
<text xml:space="preserve" text-anchor="middle" x="192.75" y="-194.5" font-family="Helvetica,sans-Serif" font-size="10.00">nrf905_set_rx_mode</text>
</a>
</g>
</g>
<!-- Node1&#45;&gt;Node35 -->
<g id="edge34_Node000001_Node000035" class="edge">
<title>Node1&#45;&gt;Node35</title>
<g id="a_edge34_Node000001_Node000035"><a xlink:title=" ">
<path fill="none" stroke="#63b8ff" d="M45.71,-777.59C45.68,-707.55 48.87,-305.23 125.5,-217 127,-215.27 128.65,-213.7 130.41,-212.26"/>
<polygon fill="#63b8ff" stroke="#63b8ff" points="132.17,-215.28 138.76,-206.98 128.44,-209.37 132.17,-215.28"/>
</a>
</g>
</g>
<!-- Node36 -->
<g id="Node000036" class="node">
<title>Node36</title>
<g id="a_Node000036"><a xlink:href="group__nrf905__basic__driver.html#ga6d1f9e65686e6f2f89fc1acde09353d1" target="_top" xlink:title="set the rx payload width">
<polygon fill="white" stroke="#666666" points="249.88,-170 135.62,-170 135.62,-138 249.88,-138 249.88,-170"/>
<text xml:space="preserve" text-anchor="start" x="143.62" y="-156.5" font-family="Helvetica,sans-Serif" font-size="10.00">nrf905_set_rx_payload</text>
<text xml:space="preserve" text-anchor="middle" x="192.75" y="-144.5" font-family="Helvetica,sans-Serif" font-size="10.00">_width</text>
</a>
</g>
</g>
<!-- Node1&#45;&gt;Node36 -->
<g id="edge35_Node000001_Node000036" class="edge">
<title>Node1&#45;&gt;Node36</title>
<g id="a_edge35_Node000001_Node000036"><a xlink:title=" ">
<path fill="none" stroke="#63b8ff" d="M45.7,-777.91C45.54,-706.46 47.85,-276.99 125.5,-179 125.93,-178.46 126.37,-177.93 126.83,-177.41"/>
<polygon fill="#63b8ff" stroke="#63b8ff" points="128.9,-180.25 134.02,-170.98 124.23,-175.03 128.9,-180.25"/>
</a>
</g>
</g>
<!-- Node37 -->
<g id="Node000037" class="node">
<title>Node37</title>
<g id="a_Node000037"><a xlink:href="group__nrf905__basic__driver.html#ga891e17aad7cbafe7c9f95e4ea2e947f4" target="_top" xlink:title="set the tx address width">
<polygon fill="white" stroke="#666666" points="250.25,-120 135.25,-120 135.25,-88 250.25,-88 250.25,-120"/>
<text xml:space="preserve" text-anchor="start" x="143.25" y="-106.5" font-family="Helvetica,sans-Serif" font-size="10.00">nrf905_set_tx_address</text>
<text xml:space="preserve" text-anchor="middle" x="192.75" y="-94.5" font-family="Helvetica,sans-Serif" font-size="10.00">_width</text>
</a>
</g>
</g>
<!-- Node1&#45;&gt;Node37 -->
<g id="edge36_Node000001_Node000037" class="edge">
<title>Node1&#45;&gt;Node37</title>
<g id="a_edge36_Node000001_Node000037"><a xlink:title=" ">
<path fill="none" stroke="#63b8ff" d="M45.58,-777.57C44.59,-701.8 41.92,-235.54 125.5,-129 125.83,-128.58 126.17,-128.16 126.52,-127.75"/>
<polygon fill="#63b8ff" stroke="#63b8ff" points="128.69,-130.51 133.7,-121.18 123.96,-125.35 128.69,-130.51"/>
</a>
</g>
</g>
<!-- Node38 -->
<g id="Node000038" class="node">
<title>Node38</title>
<g id="a_Node000038"><a xlink:href="group__nrf905__basic__driver.html#ga18973e7f4b98da3d1b198cc466b1a99a" target="_top" xlink:title="set the tx payload width">
<polygon fill="white" stroke="#666666" points="249.88,-70 135.62,-70 135.62,-38 249.88,-38 249.88,-70"/>
<text xml:space="preserve" text-anchor="start" x="143.62" y="-56.5" font-family="Helvetica,sans-Serif" font-size="10.00">nrf905_set_tx_payload</text>
<text xml:space="preserve" text-anchor="middle" x="192.75" y="-44.5" font-family="Helvetica,sans-Serif" font-size="10.00">_width</text>
</a>
</g>
</g>
<!-- Node1&#45;&gt;Node38 -->
<g id="edge37_Node000001_Node000038" class="edge">
<title>Node1&#45;&gt;Node38</title>
<g id="a_edge37_Node000001_Node000038"><a xlink:title=" ">
<path fill="none" stroke="#63b8ff" d="M46.27,-777.56C50.52,-694.09 80.49,-136.87 125.5,-79 125.94,-78.44 126.39,-77.89 126.85,-77.35"/>
<polygon fill="#63b8ff" stroke="#63b8ff" points="129.15,-79.99 134.26,-70.71 124.47,-74.78 129.15,-79.99"/>
</a>
</g>
</g>
<!-- Node39 -->
<g id="Node000039" class="node">
<title>Node39</title>
<g id="a_Node000039"><a xlink:href="group__nrf905__basic__driver.html#gaaa8fa6099e3c6e6a04a076101e3ba7c4" target="_top" xlink:title="write the conf">
<polygon fill="white" stroke="#666666" points="239.38,-20 146.12,-20 146.12,0 239.38,0 239.38,-20"/>
<text xml:space="preserve" text-anchor="middle" x="192.75" y="-6.5" font-family="Helvetica,sans-Serif" font-size="10.00">nrf905_write_conf</text>
</a>
</g>
</g>
<!-- Node1&#45;&gt;Node39 -->
<g id="edge38_Node000001_Node000039" class="edge">
<title>Node1&#45;&gt;Node39</title>
<g id="a_edge38_Node000001_Node000039"><a xlink:title=" ">
<path fill="none" stroke="#63b8ff" d="M46.15,-777.63C49.55,-690.97 74.93,-89.27 125.5,-29 128.4,-25.54 131.89,-22.69 135.72,-20.34"/>
<polygon fill="#63b8ff" stroke="#63b8ff" points="136.98,-23.62 144.47,-16.13 133.95,-17.31 136.98,-23.62"/>
</a>
</g>
</g>
</g>
</svg>
